<svg width="17" height="13" viewBox="0 0 17 13" xmlns="http://www.w3.org/2000/svg">
<path fill-rule="evenodd" clip-rule="evenodd" d="M1.62784 4.80591C0.733707 4.80591 6.10352e-05 5.56285 6.10352e-05 6.5C6.10352e-05 7.43715 0.733707 8.19409 1.62784 8.19409C2.52197 8.19409 3.24416 7.43715 3.24416 6.5C3.24416 5.56285 2.52197 4.80591 1.62784 4.80591ZM6.21314 4.80591C5.31901 4.80591 4.58536 5.56285 4.58536 6.5C4.58536 7.43715 5.31901 8.19409 6.21314 8.19409C7.10727 8.19409 7.82946 7.43715 7.82946 6.5C7.82946 5.56285 7.10727 4.80591 6.21314 4.80591ZM10.7984 4.80591C9.90431 4.80591 9.17066 5.56285 9.17066 6.5C9.17066 7.43715 9.90431 8.19409 10.7984 8.19409C11.6926 8.19409 12.4148 7.43715 12.4148 6.5C12.4148 5.56285 11.6926 4.80591 10.7984 4.80591ZM15.3837 4.80591C14.4896 4.80591 13.756 5.56285 13.756 6.5C13.756 7.43715 14.4896 8.19409 15.3837 8.19409C16.2779 8.19409 17.0001 7.43715 17.0001 6.5C17.0001 5.56285 16.2779 4.80591 15.3837 4.80591ZM10.7984 0C9.90431 0 9.17066 0.756935 9.17066 1.69409C9.17066 2.63124 9.90431 3.38818 10.7984 3.38818C11.6926 3.38818 12.4148 2.63124 12.4148 1.69409C12.4148 0.756935 11.6926 0 10.7984 0ZM10.7984 9.61182C9.90431 9.61182 9.17066 10.3688 9.17066 11.3059C9.17066 12.2431 9.90431 13 10.7984 13C11.6926 13 12.4148 12.2431 12.4148 11.3059C12.4148 10.3688 11.6926 9.61182 10.7984 9.61182Z"/>
</svg>
