<svg width="11" height="7" viewBox="0 0 11 7" fill="none" xmlns="http://www.w3.org/2000/svg">
<path fill-rule="evenodd" clip-rule="evenodd" d="M6.93358 1.45557C6.93358 0.656039 6.2931 0 5.50012 0C4.70715 0 4.06666 0.656039 4.06666 1.45557C4.06666 2.2551 4.70715 2.90088 5.50012 2.90088C6.2931 2.90088 6.93358 2.2551 6.93358 1.45557ZM6.93358 5.55572C6.93358 4.75619 6.2931 4.10015 5.50012 4.10015C4.70715 4.10015 4.06666 4.75619 4.06666 5.55572C4.06666 6.35423 4.70715 7 5.50012 7C6.2931 7 6.93358 6.35525 6.93358 5.55572ZM11.0001 1.45557C11.0001 0.656039 10.3596 0 9.56666 0C8.77369 0 8.1332 0.656039 8.1332 1.45557C8.1332 2.2551 8.77369 2.90088 9.56666 2.90088C10.3596 2.90088 11.0001 2.2551 11.0001 1.45557ZM2.86704 1.45557C2.86704 0.656039 2.22656 0 1.43358 0C0.640606 0 0.00012207 0.656039 0.00012207 1.45557C0.00012207 2.2551 0.640606 2.90088 1.43358 2.90088C2.22656 2.90088 2.86704 2.2551 2.86704 1.45557Z" fill="#363636"/>
</svg>
