<svg width="26" height="28" viewBox="0 0 26 28" fill="none" xmlns="http://www.w3.org/2000/svg">
<path d="M3.93751 14.9501V2.71852H0.349365V0.000732422H10.5359V2.71852H6.94699V14.9501H3.93751Z" fill="#363636"/>
<path d="M15.4664 9.51302H13.5446V14.9494H10.5352V0H16.6237C19.3091 0 21.532 2.06116 21.532 4.75651C21.532 6.59106 20.513 8.1085 19.0545 8.90125L20.5826 10.4419C22.5273 12.4126 24.9122 12.4574 26 12.4574V15.1752C23.1755 15.1752 20.7684 14.903 18.3605 12.4574L15.4664 9.51302ZM13.5446 2.71779V6.79446H16.3462C17.5265 6.79446 18.5225 5.91122 18.5225 4.75574C18.5225 3.60103 17.5273 2.71701 16.3462 2.71701H13.5446V2.71779Z" fill="#363636"/>
<path d="M13.5431 25.6442C11.7605 27.4339 9.60712 28 7.87115 28C3.51858 28 0 24.5568 0 20.2983C0 16.0399 3.51858 12.5974 7.87115 12.5974C9.60712 12.5974 11.7605 13.1636 13.5431 14.9532L11.3897 16.9015C10.5099 15.9958 9.283 15.4289 7.87115 15.4289C5.11621 15.4289 3.00949 17.603 3.00949 20.2983C3.00949 22.9937 5.11621 25.1678 7.87115 25.1678C8.8664 25.1678 9.76917 24.8963 10.5336 24.3974V20.2975H13.5431V25.6442Z" fill="#363636"/>
<path d="M18.5058 25.9581V22.9905H15.4963V20.2727H18.5058V17.2827H21.2837V20.2727H24.2932V22.9905H21.2837V25.9581H18.5058Z" fill="#363636"/>
</svg>
