<svg width="127" height="80" viewBox="0 0 127 80" fill="none" xmlns="http://www.w3.org/2000/svg">
<g opacity="0.5">
<path d="M122.279 44.5704L121.954 44.7013L121.959 44.7132L122.279 44.5704ZM125.095 78.7994V79.1494H125.405L125.442 78.8419L125.095 78.7994ZM105.694 22.8452L105.546 22.528L105.384 22.6036L105.35 22.7796L105.694 22.8452ZM122.905 20.5007L123.251 20.4529L123.209 20.1469L122.9 20.1508L122.905 20.5007ZM109.449 78.7994L109.115 78.9032L109.191 79.1494H109.449V78.7994ZM110.489 20.3221C110.449 20.3098 110.329 20.2779 110.199 20.3389C110.035 20.4164 109.991 20.5704 109.984 20.6551L110.682 20.7095C110.678 20.7671 110.644 20.9033 110.497 20.9723C110.386 21.0248 110.292 20.9939 110.286 20.992L110.489 20.3221ZM109.984 20.6551C109.978 20.7439 110.001 20.8252 110.014 20.8675C110.03 20.9209 110.053 20.9789 110.079 21.038C110.131 21.157 110.206 21.3073 110.3 21.4837C110.487 21.8377 110.762 22.323 111.107 22.9246C111.797 24.1308 112.777 25.8202 113.929 27.9162C116.232 32.1077 119.223 37.9195 121.954 44.7012L122.603 44.4397C119.858 37.6235 116.854 31.7852 114.542 27.5791C113.386 25.4762 112.403 23.78 111.714 22.5767C111.369 21.9735 111.099 21.4981 110.918 21.1559C110.827 20.9842 110.762 20.8525 110.721 20.7581C110.7 20.7106 110.688 20.679 110.682 20.6604C110.673 20.6307 110.686 20.6575 110.682 20.7095L109.984 20.6551ZM121.959 44.7132C125.832 53.3794 126.466 64.7131 124.748 78.7569L125.442 78.8419C127.166 64.7523 126.548 53.2666 122.598 44.4276L121.959 44.7132ZM125.095 78.4494H123.843V79.1494H125.095V78.4494ZM124.178 78.6975C121.196 68.8979 115.689 59.7702 111.448 50.7322C107.192 41.6634 104.182 32.6444 106.038 22.9107L105.35 22.7796C103.451 32.7393 106.543 41.9289 110.814 51.0296C115.1 60.1611 120.545 69.1637 123.509 78.9013L124.178 78.6975ZM105.842 23.1624L110.481 20.9995L110.186 20.3651L105.546 22.528L105.842 23.1624ZM110.481 20.9995L110.535 20.9743L110.24 20.3398L110.186 20.3651L110.481 20.9995ZM110.392 21.007L122.909 20.8507L122.9 20.1508L110.383 20.3071L110.392 21.007ZM122.558 20.5486C123.182 25.0685 124.271 33.6164 121.937 44.497L122.621 44.6438C124.981 33.6429 123.879 24.9982 123.251 20.4529L122.558 20.5486ZM108.703 46.1633C106.433 52.024 104.868 65.2343 109.115 78.9032L109.783 78.6955C105.581 65.1688 107.146 52.1213 109.355 46.4161L108.703 46.1633ZM109.449 79.1494H123.843V78.4494H109.449V79.1494Z" fill="white"/>
<path d="M105.068 29.2534L113.83 26.9089L123.687 28.1593" stroke="white" stroke-width="0.7"/>
<path d="M110.231 18L106.32 19.8756V22.5326L110.231 20.657M110.231 18V20.657M110.231 18H116.959V20.5007L110.231 20.657" stroke="white" stroke-width="0.7"/>
<path d="M106.633 39.4127L119.463 38.3186L123.061 40.0379" stroke="white" stroke-width="0.7"/>
<path d="M108.354 48.3215L110.701 49.8845L124.157 49.7282" stroke="white" stroke-width="0.7"/>
<path d="M108.98 77.0801H123.296L125.252 76.6112" stroke="white" stroke-width="0.7"/>
<path d="M106.789 61.2942L116.49 61.6068H125.877" stroke="white" stroke-width="0.7"/>
</g>
<rect opacity="0.2" x="77.624" y="23.2737" width="20.2212" height="3.42754" fill="white"/>
<path d="M76.1538 26.6971V78.7993H97.8461V26.6971H76.1538Z" fill="white" fill-opacity="0.2"/>
<path d="M81.8461 40.7788H91.9999M80 53.9217H93.8461M78.7692 69.2551H95.0768M77.3846 26.6971V23.5679H97.8461V26.8536M95.3846 78.7993C94.9743 62.6836 92.7692 30.6087 86.9231 30.6087C84.9547 30.6087 83.4049 34.2448 82.2032 39.6836M78.6154 78.7993C78.8195 68.1097 79.8358 50.3983 82.2032 39.6836M82.2032 39.6836H76M76.1538 68.0034H78.9231M76.1538 52.67H80.1538M93.5385 52.67H97.8462M91.6922 39.6836H97.6922M95.0769 68.0034H98M76.1538 78.7993V26.6971H97.8461V78.7993H76.1538Z" stroke="white" stroke-width="0.7"/>
<g opacity="0.5">
<path d="M65.28 79H56.135M65.28 79V75.0786M65.28 79H69V75.0786H65.28M65.28 60.491H66.277L66.277 47.6662M65.28 60.491H56.135M65.28 60.491V75.0786M66.277 47.6662H67.295V34.8642C67.295 34.8642 66.7282 34.8642 66.365 34.8642M66.277 47.6662H56.2079M66.21 13.4668H67.1862V24.1716H66.365M66.21 13.4668V2.76796H64.4385M66.21 13.4668H56.135M56.9404 2.76796C56.2574 2.76796 55.1611 2.76796 55.1611 2.76796V13.4668H56.135M56.9404 2.76796C56.9404 2.09414 56.9404 1 56.9404 1H64.4385V2.76796M56.9404 2.76796C59.8888 2.76796 64.4385 2.76796 64.4385 2.76796M56.135 13.4668C56.135 13.4668 56.1051 19.9911 56.1051 24.1716M56.1051 24.1716C55.7419 24.1716 55.205 24.1716 55.205 24.1716V34.8642H56.2079M56.1051 24.1716C60.1002 24.1716 66.365 24.1716 66.365 24.1716M66.365 24.1716C66.365 24.1716 66.365 30.6653 66.365 34.8642M66.365 34.8642C62.3984 34.8642 56.2079 34.8642 56.2079 34.8642M56.2079 34.8642V47.6662M56.2079 47.6662H55.205V60.491M55.205 60.491H56.135M55.205 60.491H49.935M56.135 60.491V75.0786M56.135 79H47.92M56.135 79V75.0786M47.92 79V75.0786M47.92 79H38.775V60.491M47.92 75.0786H56.135M47.92 75.0786V60.491M47.92 60.491H49.935M47.92 60.491H38.775M49.935 60.491V47.6662H48.85M48.85 34.7666V47.6662M48.85 34.7666H49.935V21.9869H49.315M48.85 34.7666H38.775M48.85 47.6662H38.775M49.315 21.9869V7.6305H47.455M49.315 21.9869H38.775M47.455 7.6305V6.37565H40.015V7.6305M47.455 7.6305H40.015M40.015 7.6305H38.155V21.9869H38.775M38.775 21.9869V34.7666M38.775 34.7666H38V47.6662H38.775M38.775 60.491V47.6662" stroke="white" stroke-width="0.7"/>
</g>
<g opacity="0.5">
<path d="M15.7778 57.696V21.239C15.7778 16.9997 21.7074 16.3237 26.0833 16.5667M15.7778 57.696H10.3333M15.7778 57.696H26.0833M27.25 78.5838H29V16.8874C28.2108 16.75 27.1974 16.6286 26.0833 16.5667M27.25 78.5838H7.41667M27.25 78.5838V75.1025M7.41667 78.5838V75.1025M7.41667 78.5838H1V48.1224H1.77778M10.3333 57.696V75.1025M10.3333 57.696H9.75M10.3333 75.1025H7.41667M10.3333 75.1025H27.25M7.41667 75.1025V57.696H9.75M27.25 75.1025V57.696H26.0833M26.0833 16.5667V57.696M29 22.6234C28.2108 22.486 27.1974 22.3646 26.0833 22.3027C21.7074 22.0597 15.7778 22.7357 15.7778 26.975M29 33.3268C28.2108 33.1895 27.1974 33.068 26.0833 33.0062C21.7074 32.7632 15.7778 33.4391 15.7778 37.6785M29 50.8301C28.2108 50.6927 27.1974 50.5713 26.0833 50.5094C21.7074 50.2664 15.7778 50.9424 15.7778 55.1817M9.75 57.696V48.1224H1.77778M1.77778 48.1224V47.0587M8.97222 48.0257V47.0103M1.77778 47.0587V45.9949C2.36111 45.6726 3.87778 45.0279 5.27778 45.0279C6.67778 45.0279 8.32407 45.6726 8.97222 45.9949V47.0103M1.77778 47.0587L8.97222 47.0103" stroke="white" stroke-width="0.7"/>
<path d="M3.43095 48.219V78.5837" stroke="white" stroke-width="0.7"/>
<path d="M5.37493 48.219V78.5837" stroke="white" stroke-width="0.7"/>
</g>
</svg>
