<svg width="12" height="12" viewBox="0 0 12 12" fill="none" xmlns="http://www.w3.org/2000/svg">
<path fill-rule="evenodd" clip-rule="evenodd" d="M1.30842 7.87528C0.640163 8.54354 0.657569 9.65757 1.35798 10.358C2.05839 11.0584 3.17242 11.0758 3.84068 10.4075C4.50894 9.73928 4.48297 8.63381 3.78256 7.9334C3.08215 7.23299 1.97668 7.20702 1.30842 7.87528ZM4.73539 4.44831C4.06713 5.11657 4.08454 6.2306 4.78495 6.93101C5.48536 7.63142 6.59939 7.64883 7.26765 6.98057C7.93591 6.31231 7.90994 5.20684 7.20953 4.50643C6.50912 3.80602 5.40365 3.78005 4.73539 4.44831ZM8.16236 1.02134C7.4941 1.6896 7.51151 2.80363 8.21192 3.50404C8.91233 4.20445 10.0264 4.22186 10.6946 3.5536C11.3629 2.88534 11.3369 1.77987 10.6365 1.07946C9.93609 0.37905 8.83062 0.353082 8.16236 1.02134ZM1.14354 0.856459C0.475282 1.52472 0.492688 2.63875 1.1931 3.33916C1.89351 4.03957 3.00754 4.05698 3.6758 3.38872C4.34406 2.72046 4.31809 1.61499 3.61768 0.91458C2.91727 0.214169 1.8118 0.1882 1.14354 0.856459ZM8.32724 8.04016C7.65898 8.70842 7.67639 9.82245 8.3768 10.5229C9.07721 11.2233 10.1912 11.2407 10.8595 10.5724C11.5278 9.90416 11.5018 8.79869 10.8014 8.09828C10.101 7.39787 8.9955 7.3719 8.32724 8.04016Z" fill="white"/>
</svg>
