<svg width="25" height="57" viewBox="0 0 25 57" fill="none" xmlns="http://www.w3.org/2000/svg">
<path d="M1.48279 4.37891V56.4811H23.5441V4.37891H1.48279Z" stroke="#363636"/>
<path d="M7.27197 18.4604H17.5985" stroke="#363636"/>
<path d="M5.39465 31.6035L19.4763 31.6035" stroke="#363636"/>
<path d="M4.14258 46.9365L20.7277 46.9365" stroke="#363636"/>
<path d="M2.73483 4.37877V1.24951H23.5444V4.53524M3.98653 56.481C4.1941 45.7913 5.22775 28.08 7.63542 17.3652M21.041 56.481C20.6238 40.3653 18.3811 8.29035 12.4355 8.29035C10.4337 8.29035 8.85755 11.9264 7.63542 17.3652M1.32666 17.3652H7.63542" stroke="#363636"/>
<path d="M1.48279 45.6851H4.29912" stroke="#363636"/>
<path d="M1.48279 30.3516H5.55083" stroke="#363636"/>
<path d="M19.1632 30.3516L23.5442 30.3516" stroke="#363636"/>
<path d="M17.2858 17.3652H23.3878" stroke="#363636"/>
<path d="M20.7283 45.6851H23.7011" stroke="#363636"/>
</svg>
