<svg width="341" height="340" viewBox="0 0 341 340" fill="none" xmlns="http://www.w3.org/2000/svg">
<circle cx="170.518" cy="170.071" r="169.86" fill="#FCF9F5"/>
<circle cx="235.981" cy="221.963" r="31.5205" fill="#F2967F"/>
<circle cx="158.557" cy="136.124" r="19.1738" fill="#F2967F"/>
<circle cx="114.984" cy="190.755" r="14.4698" fill="#F2967F"/>
<path d="M92 225.899V150.422M92 225.899L156.168 191.563M92 225.899H198M92 150.422V150.422C92 148.062 93.0913 145.836 94.9559 144.391L105 136.606M92 150.422L156.168 191.563M156.168 191.563L166.681 185.938C169.039 184.677 171.871 184.677 174.229 185.938L184.742 191.563M184.742 191.563L248.91 150.422M184.742 191.563L203.5 201.6M248.91 150.422V150.422C248.91 148.062 247.819 145.836 245.954 144.391L236.418 137M248.91 150.422V186M194.438 104.464L175.356 89.6745C172.471 87.4387 168.439 87.4387 165.554 89.6745L146.472 104.464" stroke="#3F3526" stroke-linecap="round"/>
<path d="M236.425 158.5V123.288C236.425 118.87 232.843 115.288 228.425 115.288H227.201M105 158.5V123.288C105 118.87 108.582 115.288 113 115.288H114" stroke="#3F3526"/>
<path d="M114 164.355V112.598C114 108.18 117.582 104.598 122 104.598H219.213C223.631 104.598 227.213 108.18 227.213 112.598V164.506" stroke="#3F3526"/>
<circle cx="235.98" cy="221.963" r="38.1522" stroke="#3F3526"/>
<path d="M215.85 215.699L235.518 235.367L281.655 189.23" stroke="#3F3526" stroke-linecap="round"/>
<path d="M81.527 225.899H49.416" stroke="#3F3526" stroke-linecap="round"/>
<path d="M81.527 203.899H49.416" stroke="#3F3526" stroke-linecap="round"/>
<path d="M81.5275 214.899H40.5508" stroke="#3F3526" stroke-linecap="round"/>
<path d="M210.518 124.124H130.518" stroke="#3F3526" stroke-linecap="round"/>
<path d="M211.59 136.124H131.59" stroke="#3F3526" stroke-linecap="round"/>
<path d="M211.59 148.124H131.59" stroke="#3F3526" stroke-linecap="round"/>
<path d="M211.59 160.124H131.59" stroke="#3F3526" stroke-linecap="round"/>
</svg>
