<svg width="53" height="53" viewBox="0 0 53 53" fill="none" xmlns="http://www.w3.org/2000/svg">
<circle cx="26.3694" cy="26.6816" r="26" fill="#ED6B4D"/>
<g clip-path="url(#clip0)">
<path d="M20.2469 27.8942V18.7205H17.6248V16.6821H25.0688V18.7205H22.4461V27.8942H20.2469Z" fill="white"/>
<path d="M28.6717 23.8164H27.2674V27.8937H25.0681V16.6816H29.5174C31.4798 16.6816 33.1043 18.2275 33.1043 20.249C33.1043 21.6249 32.3596 22.763 31.2938 23.3576L32.4105 24.5131C33.8316 25.9911 35.5744 26.0247 36.3693 26.0247V28.063C34.3053 28.063 32.5462 27.8589 30.7866 26.0247L28.6717 23.8164ZM27.2674 18.72V21.7775H29.3147C30.1771 21.7775 30.905 21.1151 30.905 20.2484C30.905 19.3824 30.1777 18.7194 29.3147 18.7194H27.2674V18.72Z" fill="white"/>
<path d="M27.2663 35.915C25.9636 37.2572 24.39 37.6818 23.1214 37.6818C19.9407 37.6818 17.3694 35.0994 17.3694 31.9056C17.3694 28.7117 19.9407 26.1299 23.1214 26.1299C24.39 26.1299 25.9636 26.5545 27.2663 27.8968L25.6926 29.3579C25.0497 28.6787 24.1531 28.2535 23.1214 28.2535C21.1082 28.2535 19.5686 29.884 19.5686 31.9056C19.5686 33.9271 21.1082 35.5576 23.1214 35.5576C23.8487 35.5576 24.5084 35.354 25.067 34.9799V31.905H27.2663V35.915Z" fill="white"/>
<path d="M30.8928 36.1501V33.9244H28.6936V31.8861H30.8928V29.6436H32.9228V31.8861H35.1221V33.9244H32.9228V36.1501H30.8928Z" fill="white"/>
</g>
<defs>
<clipPath id="clip0">
<rect width="19" height="21" fill="white" transform="translate(17.3694 16.6816)"/>
</clipPath>
</defs>
</svg>
