<svg width="13" height="13" viewBox="0 0 13 13" fill="none" xmlns="http://www.w3.org/2000/svg">
<path d="M1.36938 7.68164C0.8171 7.68164 0.369385 7.23393 0.369385 6.68164C0.369385 6.12936 0.8171 5.68164 1.36938 5.68164L11.3694 5.68164C11.9217 5.68164 12.3694 6.12936 12.3694 6.68164C12.3694 7.23393 11.9217 7.68164 11.3694 7.68164L1.36938 7.68164Z" fill="#363636"/>
<path d="M6.36938 12.6816C5.8171 12.6816 5.36938 12.2339 5.36938 11.6816L5.36938 1.68164C5.36938 1.12936 5.8171 0.681642 6.36938 0.681642C6.92167 0.681642 7.36938 1.12936 7.36938 1.68164L7.36938 11.6816C7.36938 12.2339 6.92167 12.6816 6.36938 12.6816Z" fill="#363636"/>
</svg>
