<?xml version="1.0" encoding="UTF-8"?>
<!DOCTYPE svg PUBLIC "-//W3C//DTD SVG 1.1//EN" "http://www.w3.org/Graphics/SVG/1.1/DTD/svg11.dtd">
<svg xmlns="http://www.w3.org/2000/svg" xmlns:xlink="http://www.w3.org/1999/xlink">
<symbol id="arrow-right" viewBox="0 0 17 13">
	<path fill-rule="evenodd" d="M1.628 4.806C.734 4.806 0 5.563 0 6.5c0 .937.734 1.694 1.628 1.694.894 0 1.616-.757 1.616-1.694 0-.937-.722-1.694-1.616-1.694zm4.585 0c-.894 0-1.628.757-1.628 1.694 0 .937.734 1.694 1.628 1.694.894 0 1.616-.757 1.616-1.694 0-.937-.722-1.694-1.616-1.694zm4.585 0c-.894 0-1.627.757-1.627 1.694 0 .937.733 1.694 1.627 1.694.895 0 1.617-.757 1.617-1.694 0-.937-.722-1.694-1.617-1.694zm4.586 0c-.894 0-1.628.757-1.628 1.694 0 .937.734 1.694 1.628 1.694.894 0 1.616-.757 1.616-1.694 0-.937-.722-1.694-1.616-1.694zM10.798 0c-.894 0-1.627.757-1.627 1.694 0 .937.733 1.694 1.627 1.694.895 0 1.617-.757 1.617-1.694C12.415.757 11.693 0 10.798 0zm0 9.612c-.894 0-1.627.757-1.627 1.694 0 .937.733 1.694 1.627 1.694.895 0 1.617-.757 1.617-1.694 0-.937-.722-1.694-1.617-1.694z" clip-rule="evenodd"/>
</symbol>
<symbol id="arrow" viewBox="0 0 11 7">
	<path fill="#363636" fill-rule="evenodd" d="M6.934 1.456C6.934.656 6.294 0 5.5 0c-.793 0-1.433.656-1.433 1.456 0 .8.64 1.445 1.433 1.445s1.434-.646 1.434-1.445zm0 4.1c0-.8-.64-1.456-1.434-1.456-.793 0-1.433.656-1.433 1.456C4.067 6.354 4.707 7 5.5 7s1.434-.645 1.434-1.444zM11 1.456C11 .656 10.36 0 9.567 0S8.133.656 8.133 1.456c0 .8.64 1.445 1.434 1.445C10.36 2.9 11 2.255 11 1.456zm-8.133 0C2.867.656 2.227 0 1.434 0S0 .656 0 1.456C0 2.256.64 2.9 1.434 2.9c.793 0 1.433-.646 1.433-1.445z" clip-rule="evenodd"/>
</symbol>
<symbol id="logo" viewBox="0 0 26 28">
	<path fill="#363636" d="M3.938 14.95V2.72H.349V0h10.187v2.718H6.947V14.95h-3.01z"/>
	<path fill="#363636" d="M15.466 9.513h-1.921v5.436h-3.01V0h6.089c2.685 0 4.908 2.061 4.908 4.757 0 1.834-1.019 3.351-2.477 4.144l1.528 1.54c1.944 1.972 4.33 2.016 5.417 2.016v2.718c-2.825 0-5.232-.272-7.64-2.718l-2.894-2.944zm-1.921-6.795v4.076h2.801c1.18 0 2.177-.883 2.177-2.038 0-1.155-.996-2.039-2.177-2.039h-2.801z"/>
	<path fill="#363636" d="M13.543 25.644A7.94 7.94 0 017.871 28C3.52 28 0 24.557 0 20.298c0-4.258 3.519-7.7 7.871-7.7 1.736 0 3.89.566 5.672 2.355l-2.153 1.948A4.85 4.85 0 007.87 15.43c-2.755 0-4.862 2.174-4.862 4.87 0 2.695 2.107 4.869 4.862 4.869.995 0 1.898-.272 2.663-.77v-4.1h3.01v5.346zM18.506 25.958v-2.967h-3.01v-2.718h3.01v-2.99h2.778v2.99h3.01v2.718h-3.01v2.967h-2.778z"/>
</symbol>
<symbol id="slash" viewBox="0 0 42 42">
	<path fill="#fff" d="M0 40.907L40.305.602l.707.707L.707 41.614z" opacity=".2"/>
</symbol>
<symbol id="towers" viewBox="0 0 127 80">
	<g opacity=".5">
		<path fill="#fff" d="M122.279 44.57l-.325.131.005.012.32-.143zm2.816 34.23v.35h.31l.037-.308-.347-.043zm-19.401-55.955l-.148-.317-.162.076-.034.176.344.065zm17.211-2.344l.346-.048-.042-.306-.309.004.005.35zm-13.456 58.298l-.334.104.076.246h.258v-.35zm1.04-58.477a.38.38 0 00-.505.333l.698.055a.32.32 0 01-.185.262c-.111.053-.205.022-.211.02l.203-.67zm-.505.333a.597.597 0 00.03.212c.016.054.039.112.065.171.052.119.127.27.221.446.187.354.462.839.807 1.44.69 1.207 1.67 2.896 2.822 4.992 2.303 4.192 5.294 10.003 8.025 16.785l.649-.261c-2.745-6.816-5.749-12.655-8.061-16.86-1.156-2.104-2.139-3.8-2.828-5.003a55.868 55.868 0 01-.796-1.421 6.107 6.107 0 01-.197-.398 1.086 1.086 0 01-.039-.098c-.009-.03.004-.003 0 .05l-.698-.055zm11.975 24.058c3.873 8.666 4.507 20 2.789 34.044l.694.085c1.724-14.09 1.106-25.575-2.844-34.414l-.639.285zm3.136 33.736h-1.252v.7h1.252v-.7zm-.917.249c-2.982-9.8-8.489-18.928-12.73-27.966-4.256-9.069-7.266-18.088-5.41-27.821l-.688-.131c-1.899 9.96 1.193 19.149 5.464 28.25 4.286 9.131 9.731 18.134 12.695 27.871l.669-.203zm-18.336-55.536L110.481 21l-.295-.635-4.64 2.163.296.634zM110.481 21l.054-.026-.295-.634-.054.025.295.635zm-.089.007l12.517-.156-.009-.7-12.517.156.009.7zm12.166-.458c.624 4.52 1.713 13.067-.621 23.948l.684.147c2.36-11.001 1.258-19.646.63-24.191l-.693.096zm-13.855 25.614c-2.27 5.861-3.835 19.071.412 32.74l.668-.208c-4.202-13.526-2.637-26.574-.428-32.279l-.652-.253zm.746 32.986h14.394v-.7h-14.394v.7z"/>
		<path stroke="#fff" stroke-width=".7" d="M105.068 29.253l8.762-2.344 9.857 1.25M110.231 18l-3.911 1.876v2.657l3.911-1.876m0-2.657v2.657m0-2.657h6.728v2.5l-6.728.157M106.633 39.413l12.83-1.094 3.598 1.719M108.354 48.322l2.347 1.563 13.456-.157M108.98 77.08h14.316l1.956-.469M106.789 61.294l9.701.313h9.387"/>
	</g>
	<path fill="#fff" d="M77.624 23.274h20.221v3.428H77.624z" opacity=".2"/>
	<path fill="#fff" fill-opacity=".2" d="M76.154 26.697V78.8h21.692V26.697H76.154z"/>
	<path stroke="#fff" stroke-width=".7" d="M81.846 40.779H92M80 53.922h13.846M78.77 69.255h16.308M77.385 26.697v-3.13h20.461v3.287m-2.461 51.945c-.41-16.115-2.616-48.19-8.462-48.19-1.968 0-3.518 3.636-4.72 9.075m-3.588 39.115c.205-10.69 1.22-28.4 3.588-39.115m0 0H76m.154 28.32h2.77m-2.77-15.334h4m13.385 0h4.307m-6.154-12.986h6m-2.615 28.32H98M76.154 78.798V26.697h21.692V78.8H76.154z"/>
	<path stroke="#fff" stroke-width=".7" d="M65.28 79h-9.145m9.145 0v-3.921m0 3.921H69v-3.921h-3.72m0-14.588h.997V47.666m-.997 12.825h-9.145m9.145 0v14.588m.997-27.413h1.018V34.864h-.93m-.088 12.802h-10.07m10.003-34.2h.976v10.706h-.821m-.155-10.705V2.768h-1.771m1.771 10.699H56.135m.805-10.699h-1.779v10.699h.974m.805-10.699V1h7.499v1.768m-7.499 0h7.499m-8.304 10.699s-.03 6.524-.03 10.705m0 0h-.9v10.692h1.003m-.103-10.692h10.26m0 0v10.692m0 0H56.208m0 0v12.802m0 0h-1.003v12.825m0 0h.93m-.93 0h-5.27m6.2 0v14.588m0 3.921H47.92m8.215 0v-3.921M47.92 79v-3.921m0 3.921h-9.145V60.491m9.145 14.588h8.215m-8.215 0V60.49m0 0h2.015m-2.015 0h-9.145m11.16 0V47.666H48.85m0-12.9v12.9m0-12.9h1.085v-12.78h-.62m-.465 12.78H38.775m10.075 12.9H38.775m10.54-25.68V7.63h-1.86m1.86 14.357h-10.54m8.68-14.356V6.375h-7.44V7.63m7.44 0h-7.44m0 0h-1.86v14.357h.62m0 0v12.78m0 0H38v12.9h.775m0 12.824V47.666" opacity=".5"/>
	<g stroke="#fff" stroke-width=".7" opacity=".5">
		<path d="M15.778 57.696V21.239c0-4.24 5.93-4.915 10.305-4.672M15.778 57.696h-5.445m5.445 0h10.305m1.167 20.888H29V16.887a25.812 25.812 0 00-2.917-.32m1.167 62.017H7.417m19.833 0v-3.481m-19.833 3.48v-3.48m0 3.48H1v-30.46h.778m8.555 9.573v17.407m0-17.407H9.75m.583 17.407H7.417m2.916 0H27.25m-19.833 0V57.696H9.75m17.5 17.407V57.696h-1.167m0-41.13v41.13M29 22.623a25.812 25.812 0 00-2.917-.32c-4.376-.243-10.305.433-10.305 4.672M29 33.327a25.815 25.815 0 00-2.917-.32c-4.376-.244-10.305.432-10.305 4.672M29 50.83a25.812 25.812 0 00-2.917-.32c-4.376-.244-10.305.432-10.305 4.672M9.75 57.696v-9.574H1.778m0 0V47.06m7.194.967V47.01m-7.194.049v-1.064c.583-.322 2.1-.967 3.5-.967s3.046.645 3.694.967v1.015m-7.194.049l7.194-.049M3.431 48.219v30.365M5.375 48.219v30.365"/>
	</g>
</symbol>
<symbol id="x" viewBox="0 0 12 12">
	<path fill="#fff" fill-rule="evenodd" d="M1.308 7.875c-.668.669-.65 1.783.05 2.483.7.7 1.814.718 2.483.05.668-.669.642-1.774-.058-2.475-.7-.7-1.806-.726-2.475-.058zm3.427-3.427c-.668.669-.65 1.783.05 2.483.7.7 1.814.718 2.483.05.668-.669.642-1.774-.058-2.475-.7-.7-1.806-.726-2.475-.058zm3.427-3.427c-.668.669-.65 1.783.05 2.483.7.7 1.814.718 2.483.05.668-.669.642-1.774-.059-2.475-.7-.7-1.805-.726-2.474-.058zM1.144.856c-.669.669-.651 1.783.05 2.483.7.7 1.814.718 2.482.05.668-.669.642-1.774-.058-2.474-.7-.7-1.806-.727-2.474-.059zM8.327 8.04c-.668.668-.65 1.782.05 2.483.7.7 1.814.718 2.482.05.669-.669.643-1.774-.058-2.475-.7-.7-1.806-.726-2.474-.058z" clip-rule="evenodd"/>
</symbol>
</svg>