<svg width="127" height="80" viewBox="0 0 127 80" fill="none" xmlns="http://www.w3.org/2000/svg">
<g opacity="0.5">
<path d="M122.279 44.5703L121.954 44.7012L121.959 44.7132L122.279 44.5703ZM125.095 78.7993V79.1493H125.405L125.442 78.8418L125.095 78.7993ZM105.694 22.8451L105.546 22.5279L105.384 22.6036L105.35 22.7796L105.694 22.8451ZM122.905 20.5007L123.251 20.4528L123.209 20.1468L122.9 20.1507L122.905 20.5007ZM109.449 78.7993L109.115 78.9031L109.191 79.1493H109.449V78.7993ZM110.489 20.322C110.449 20.3097 110.329 20.2779 110.199 20.3388C110.035 20.4163 109.991 20.5703 109.984 20.6551L110.682 20.7094C110.678 20.767 110.644 20.9032 110.497 20.9723C110.386 21.0247 110.292 20.9938 110.286 20.9919L110.489 20.322ZM109.984 20.6551C109.978 20.7438 110.001 20.8251 110.014 20.8674C110.03 20.9209 110.053 20.9788 110.079 21.038C110.131 21.1569 110.206 21.3072 110.3 21.4836C110.487 21.8377 110.762 22.323 111.107 22.9245C111.797 24.1307 112.777 25.8201 113.929 27.9161C116.232 32.1076 119.223 37.9195 121.954 44.7011L122.603 44.4396C119.858 37.6234 116.854 31.7852 114.542 27.579C113.386 25.4762 112.403 23.7799 111.714 22.5766C111.369 21.9735 111.099 21.4981 110.918 21.1559C110.827 20.9842 110.762 20.8524 110.721 20.7581C110.7 20.7105 110.688 20.679 110.682 20.6604C110.673 20.6307 110.686 20.6574 110.682 20.7094L109.984 20.6551ZM121.959 44.7132C125.832 53.3793 126.466 64.713 124.748 78.7568L125.442 78.8418C127.166 64.7522 126.548 53.2666 122.598 44.4275L121.959 44.7132ZM125.095 78.4493H123.843V79.1493H125.095V78.4493ZM124.178 78.6974C121.196 68.8979 115.689 59.7701 111.448 50.7321C107.192 41.6633 104.182 32.6444 106.038 22.9107L105.35 22.7796C103.451 32.7392 106.543 41.9289 110.814 51.0295C115.1 60.161 120.545 69.1637 123.509 78.9012L124.178 78.6974ZM105.842 23.1623L110.481 20.9995L110.186 20.365L105.546 22.5279L105.842 23.1623ZM110.481 20.9995L110.535 20.9742L110.24 20.3397L110.186 20.365L110.481 20.9995ZM110.392 21.0069L122.909 20.8506L122.9 20.1507L110.383 20.307L110.392 21.0069ZM122.558 20.5485C123.182 25.0684 124.271 33.6164 121.937 44.4969L122.621 44.6438C124.981 33.6428 123.879 24.9981 123.251 20.4528L122.558 20.5485ZM108.703 46.1632C106.433 52.024 104.868 65.2342 109.115 78.9031L109.783 78.6955C105.581 65.1688 107.146 52.1212 109.355 46.416L108.703 46.1632ZM109.449 79.1493H123.843V78.4493H109.449V79.1493Z" fill="white"/>
<path d="M105.068 29.2533L113.83 26.9089L123.687 28.1592" stroke="white" stroke-width="0.7"/>
<path d="M110.231 18L106.32 19.8755V22.5326L110.231 20.657M110.231 18V20.657M110.231 18H116.959V20.5007L110.231 20.657" stroke="white" stroke-width="0.7"/>
<path d="M106.633 39.4126L119.463 38.3185L123.061 40.0378" stroke="white" stroke-width="0.7"/>
<path d="M108.354 48.3215L110.701 49.8845L124.157 49.7282" stroke="white" stroke-width="0.7"/>
<path d="M108.98 77.0801H123.296L125.252 76.6112" stroke="white" stroke-width="0.7"/>
<path d="M106.789 61.2941L116.49 61.6067H125.877" stroke="white" stroke-width="0.7"/>
</g>
<rect opacity="0.2" x="77.624" y="23.2737" width="20.2212" height="3.42754" fill="white"/>
<path d="M76.1538 26.6971V78.7993H97.8461V26.6971H76.1538Z" fill="white" fill-opacity="0.2"/>
<path d="M81.8461 40.7788H91.9999M80 53.9217H93.8461M78.7692 69.2551H95.0768M77.3846 26.6971V23.5678H97.8461V26.8536M95.3846 78.7993C94.9743 62.6836 92.7692 30.6087 86.9231 30.6087C84.9547 30.6087 83.4049 34.2448 82.2032 39.6835M78.6154 78.7993C78.8195 68.1096 79.8358 50.3983 82.2032 39.6835M82.2032 39.6835H76M76.1538 68.0034H78.9231M76.1538 52.67H80.1538M93.5385 52.67H97.8462M91.6922 39.6835H97.6922M95.0769 68.0034H98M76.1538 78.7993V26.6971H97.8461V78.7993H76.1538Z" stroke="white" stroke-width="0.7"/>
<g opacity="0.5">
<path d="M65.28 79H56.135M65.28 79V75.0786M65.28 79H69V75.0786H65.28M65.28 60.491H66.277L66.277 47.6661M65.28 60.491H56.135M65.28 60.491V75.0786M66.277 47.6661H67.295V34.8642C67.295 34.8642 66.7282 34.8642 66.365 34.8642M66.277 47.6661H56.2079M66.21 13.4668H67.1862V24.1716H66.365M66.21 13.4668V2.76793H64.4385M66.21 13.4668H56.135M56.9404 2.76793C56.2574 2.76793 55.1611 2.76793 55.1611 2.76793V13.4668H56.135M56.9404 2.76793C56.9404 2.09411 56.9404 0.999969 56.9404 0.999969H64.4385V2.76793M56.9404 2.76793C59.8888 2.76793 64.4385 2.76793 64.4385 2.76793M56.135 13.4668C56.135 13.4668 56.1051 19.9911 56.1051 24.1716M56.1051 24.1716C55.7419 24.1716 55.205 24.1716 55.205 24.1716V34.8641H56.2079M56.1051 24.1716C60.1002 24.1716 66.365 24.1716 66.365 24.1716M66.365 24.1716C66.365 24.1716 66.365 30.6653 66.365 34.8642M66.365 34.8642C62.3984 34.8642 56.2079 34.8641 56.2079 34.8641M56.2079 34.8641V47.6661M56.2079 47.6661H55.205V60.491M55.205 60.491H56.135M55.205 60.491H49.935M56.135 60.491V75.0786M56.135 79H47.92M56.135 79V75.0786M47.92 79V75.0786M47.92 79H38.775V60.491M47.92 75.0786H56.135M47.92 75.0786V60.491M47.92 60.491H49.935M47.92 60.491H38.775M49.935 60.491V47.6661H48.85M48.85 34.7666V47.6661M48.85 34.7666H49.935V21.9869H49.315M48.85 34.7666H38.775M48.85 47.6661H38.775M49.315 21.9869V7.63047H47.455M49.315 21.9869H38.775M47.455 7.63047V6.37562H40.015V7.63047M47.455 7.63047H40.015M40.015 7.63047H38.155V21.9869H38.775M38.775 21.9869V34.7666M38.775 34.7666H38V47.6661H38.775M38.775 60.491V47.6661" stroke="white" stroke-width="0.7"/>
</g>
<g opacity="0.5">
<path d="M15.7778 57.6959V21.239C15.7778 16.9996 21.7074 16.3236 26.0833 16.5666M15.7778 57.6959H10.3333M15.7778 57.6959H26.0833M27.25 78.5838H29V16.8873C28.2108 16.75 27.1974 16.6285 26.0833 16.5666M27.25 78.5838H7.41667M27.25 78.5838V75.1025M7.41667 78.5838V75.1025M7.41667 78.5838H1V48.1224H1.77778M10.3333 57.6959V75.1025M10.3333 57.6959H9.75M10.3333 75.1025H7.41667M10.3333 75.1025H27.25M7.41667 75.1025V57.6959H9.75M27.25 75.1025V57.6959H26.0833M26.0833 16.5666V57.6959M29 22.6234C28.2108 22.486 27.1974 22.3646 26.0833 22.3027C21.7074 22.0597 15.7778 22.7357 15.7778 26.975M29 33.3268C28.2108 33.1894 27.1974 33.068 26.0833 33.0061C21.7074 32.7631 15.7778 33.4391 15.7778 37.6784M29 50.83C28.2108 50.6927 27.1974 50.5712 26.0833 50.5094C21.7074 50.2663 15.7778 50.9423 15.7778 55.1817M9.75 57.6959V48.1224H1.77778M1.77778 48.1224V47.0586M8.97222 48.0257V47.0103M1.77778 47.0586V45.9949C2.36111 45.6726 3.87778 45.0279 5.27778 45.0279C6.67778 45.0279 8.32407 45.6726 8.97222 45.9949V47.0103M1.77778 47.0586L8.97222 47.0103" stroke="white" stroke-width="0.7"/>
<path d="M3.43091 48.219V78.5837" stroke="white" stroke-width="0.7"/>
<path d="M5.37488 48.219V78.5837" stroke="white" stroke-width="0.7"/>
</g>
</svg>
