<svg width="340" height="341" viewBox="0 0 340 341" fill="none" xmlns="http://www.w3.org/2000/svg">
<circle cx="96.1892" cy="218.047" r="19.3631" fill="#ED6B4D" fill-opacity="0.7"/>
<circle cx="193.885" cy="171.284" r="37.3692" fill="#ED6B4D" fill-opacity="0.7"/>
<circle cx="189.365" cy="257.259" r="26.4141" fill="#ED6B4D" fill-opacity="0.7"/>
<path fill-rule="evenodd" clip-rule="evenodd" d="M168.163 238.585C167.118 238.585 166.263 238.028 165.496 237.528L165.496 237.528C165.418 237.478 165.342 237.428 165.265 237.379C164.402 236.824 163.53 236.331 162.319 236.331C160.738 236.331 159.488 236.849 158.186 237.602C157.712 237.877 157.241 238.176 156.742 238.493L156.742 238.493C156.549 238.616 156.351 238.742 156.147 238.87C155.427 239.322 154.649 239.79 153.775 240.224C151.822 241.193 149.885 241.452 148.128 241.52C150.189 242.406 151.886 242.996 153.552 243.318C155.735 243.739 157.894 243.704 160.776 243.228C162.625 242.922 163.831 243.39 164.908 243.904C165.026 243.96 165.142 244.016 165.256 244.072C166.173 244.517 166.985 244.912 168.163 244.912C169.341 244.912 170.153 244.517 171.07 244.072C171.184 244.016 171.299 243.96 171.418 243.904C172.495 243.39 173.701 242.922 175.55 243.228C178.432 243.704 180.591 243.739 182.774 243.318C184.44 242.996 186.137 242.406 188.198 241.52C186.441 241.452 184.504 241.193 182.551 240.224C181.676 239.79 180.899 239.322 180.179 238.87C179.975 238.742 179.777 238.616 179.583 238.493L179.583 238.493C179.085 238.176 178.614 237.877 178.14 237.602C176.838 236.849 175.587 236.331 174.007 236.331C172.796 236.331 171.926 236.824 171.063 237.379C170.988 237.427 170.911 237.477 170.834 237.527C170.067 238.027 169.212 238.585 168.163 238.585ZM168.163 237.585C168.9 237.585 169.504 237.195 170.33 236.661C170.393 236.621 170.457 236.579 170.522 236.537C171.413 235.965 172.491 235.331 174.007 235.331C175.835 235.331 177.264 235.94 178.64 236.737C179.134 237.022 179.632 237.339 180.137 237.66L180.138 237.661C180.328 237.781 180.519 237.902 180.71 238.023C181.421 238.469 182.165 238.916 182.995 239.328C185.459 240.55 187.893 240.546 190.111 240.542C190.237 240.541 190.363 240.541 190.487 240.541H191.69L190.842 241.394C190.161 242.079 189.49 242.785 188.813 243.499L188.813 243.499C184.066 248.501 179.037 253.802 168.163 253.802C157.289 253.802 152.26 248.501 147.513 243.499L147.513 243.499C146.836 242.785 146.165 242.079 145.484 241.394L144.636 240.541H145.838C145.963 240.541 146.089 240.541 146.215 240.542C148.433 240.546 150.867 240.55 153.331 239.328C154.161 238.916 154.905 238.469 155.615 238.023C155.808 237.902 155.999 237.78 156.189 237.66L156.189 237.66C156.694 237.339 157.191 237.022 157.685 236.737C159.062 235.94 160.49 235.331 162.319 235.331C163.835 235.331 164.914 235.965 165.806 236.537C165.872 236.58 165.936 236.621 166 236.662L166.001 236.663C166.827 237.196 167.429 237.585 168.163 237.585ZM168.163 252.802C178.588 252.802 183.331 247.812 188.069 242.827L188.333 242.549C186.35 243.391 184.651 243.974 182.963 244.299C180.631 244.749 178.348 244.704 175.386 244.214C173.826 243.956 172.84 244.334 171.848 244.806C171.737 244.859 171.624 244.914 171.51 244.97C170.599 245.415 169.583 245.912 168.163 245.912C166.743 245.912 165.727 245.415 164.815 244.97C164.701 244.914 164.589 244.859 164.478 244.806C163.486 244.334 162.5 243.956 160.939 244.214C157.978 244.704 155.695 244.749 153.363 244.299C151.675 243.974 149.976 243.391 147.993 242.549L148.257 242.827C152.995 247.812 157.738 252.802 168.163 252.802Z" fill="#3F3526"/>
<path d="M129.561 253.992C129.561 265.02 129.152 278.908 125.885 289.528C123.289 297.965 116.547 312.349 97.5773 324.457" stroke="#3F3526"/>
<path d="M207.364 253.992C207.364 265.02 207.772 278.908 211.04 289.528C213.694 298.153 220.679 312.992 240.63 325.26" stroke="#3F3526"/>
<path d="M234.506 164.538C236.548 192.313 229.196 217.23 227.562 220.497" stroke="#3F3526"/>
<path d="M102.757 164.538C100.714 192.313 108.067 217.23 109.701 220.497" stroke="#3F3526"/>
<path d="M168.366 275.64C172.451 275.64 182.662 274.5 191.24 269.513C207.579 260.014 221.875 231.934 227.593 220.497C234.129 222.131 234.536 212.989 235.354 207.426C237.397 193.539 244.34 176.383 244.749 169.031C245.076 163.149 238.622 161.27 234.537 164.538C233.584 156.368 228.819 140.847 216.565 133.903C207.888 128.986 184.716 120.289 187.576 99.4573" stroke="#3F3526" stroke-linecap="round"/>
<path d="M168.786 275.64C164.701 275.64 154.489 274.5 145.912 269.513C129.573 260.014 115.277 231.935 109.558 220.498C103.023 222.131 102.615 212.989 101.797 207.427C99.755 193.539 92.8111 176.383 92.4026 169.031C92.0758 163.149 98.5296 161.27 102.614 164.538C103.567 156.368 105.382 124.682 135.688 118.79C165.098 113.071 195.324 110.62 191.239 79.9853" stroke="#3F3526" stroke-linecap="round"/>
<path d="M119.35 303.416C122.586 249.09 76.4962 239.216 65.5003 164.538C57.0435 107.104 106.656 52.6182 167.926 52.6182C229.196 52.6182 275.367 110.785 271.493 176.172C267.618 241.558 213.297 269.318 236.592 322.702" stroke="#3F3526"/>
<path d="M202.238 172.299C195.294 172.419 192.026 176.793 187.125 179.652C190.801 180.469 195.689 182.844 202.238 182.92C208.787 182.995 214.083 179.652 219.016 178.464C213.675 176.793 209.542 172.174 202.238 172.299Z" stroke="#3F3526"/>
<path d="M208.272 177.609C208.272 178.876 207.558 180.069 206.369 180.964C205.182 181.858 203.56 182.419 201.86 182.419C200.157 182.419 198.41 181.855 197.098 180.952C195.779 180.043 194.976 178.849 194.976 177.609C194.976 176.215 195.28 175.151 196.205 174.37C197.162 173.56 198.872 172.974 201.889 172.798C204.881 172.623 206.426 173.217 207.242 174.066C208.064 174.923 208.272 176.164 208.272 177.609Z" stroke="#3F3526"/>
<path d="M205.414 176.956C205.414 178.661 203.796 180.122 201.964 180.122C201.059 180.122 200.115 179.758 199.4 179.164C198.686 178.569 198.244 177.783 198.244 176.956C198.244 175.993 198.422 175.136 198.937 174.495C199.443 173.866 200.347 173.356 201.999 173.239C203.607 173.125 204.399 173.626 204.828 174.273C205.293 174.974 205.414 175.959 205.414 176.956Z" stroke="#3F3526"/>
<path d="M185.49 178.834C190.801 175.158 194.477 168.214 202.646 168.214C210.006 168.214 213.675 173.116 224.326 176.792" stroke="#3F3526" stroke-linecap="round"/>
<path d="M205.096 185.37C210.406 185.37 215.308 181.285 221.058 180.06" stroke="#3F3526" stroke-linecap="round"/>
<path d="M185.351 165.075C184.334 164.298 184.199 160.407 186.04 159.462C192.932 155.926 199.929 154.493 208.859 155.616C217.405 156.69 229.92 163.344 229.217 164.326C228.351 165.534 218.736 161.937 208.241 160.649C197.745 159.36 186.368 165.852 185.351 165.075Z" stroke="#3F3526"/>
<path d="M151.262 165.075C152.279 164.298 152.413 160.407 150.572 159.463C143.68 155.926 136.684 154.493 127.754 155.616C119.207 156.69 106.692 163.344 107.396 164.326C108.262 165.534 117.876 161.937 128.372 160.649C138.867 159.36 150.245 165.852 151.262 165.075Z" stroke="#3F3526"/>
<path d="M175.343 170.193C175.02 178.767 174.858 195.915 177.285 207.077" stroke="#3F3526" stroke-linecap="round"/>
<path fill-rule="evenodd" clip-rule="evenodd" d="M154.488 212.923C154.61 212.676 154.91 212.575 155.157 212.697C155.405 212.82 155.506 213.119 155.384 213.367C154.608 214.935 154.16 216.883 154.21 218.472C154.234 219.267 154.383 219.933 154.642 220.41C154.893 220.872 155.239 221.148 155.703 221.231C157.193 221.499 158.373 220.852 159.541 220.213L159.541 220.213C159.65 220.152 159.76 220.092 159.87 220.033C160.472 219.708 161.134 219.38 161.806 219.363C162.543 219.345 163.194 219.695 163.775 220.47C164.933 222.013 166.737 222.448 168.277 222.448C168.287 222.448 168.296 222.449 168.306 222.449C168.316 222.449 168.325 222.448 168.335 222.448C169.875 222.448 171.679 222.013 172.837 220.47C173.418 219.695 174.069 219.345 174.806 219.363C175.478 219.38 176.14 219.708 176.742 220.033C176.852 220.092 176.961 220.152 177.071 220.213C178.239 220.852 179.419 221.499 180.909 221.231C181.373 221.148 181.719 220.872 181.97 220.41C182.229 219.933 182.378 219.267 182.402 218.472C182.452 216.883 182.004 214.935 181.228 213.367C181.106 213.119 181.207 212.82 181.454 212.697C181.702 212.575 182.002 212.676 182.124 212.923C182.966 214.624 183.457 216.734 183.402 218.503C183.374 219.386 183.209 220.224 182.849 220.887C182.48 221.566 181.9 222.069 181.086 222.215C179.229 222.549 177.739 221.725 176.602 221.097L176.602 221.097C176.486 221.033 176.375 220.971 176.267 220.913C175.643 220.577 175.182 220.373 174.781 220.363C174.446 220.354 174.076 220.484 173.637 221.07C172.211 222.971 170.029 223.448 168.335 223.448C168.325 223.448 168.316 223.448 168.306 223.448C168.296 223.448 168.287 223.448 168.277 223.448C166.583 223.448 164.401 222.971 162.975 221.07C162.536 220.484 162.166 220.354 161.831 220.363C161.43 220.373 160.968 220.577 160.345 220.913C160.237 220.971 160.125 221.033 160.01 221.097L160.01 221.097C158.873 221.725 157.383 222.549 155.526 222.215C154.711 222.069 154.132 221.566 153.763 220.887C153.403 220.224 153.238 219.386 153.21 218.503C153.155 216.734 153.646 214.624 154.488 212.923Z" fill="#3F3526"/>
<path d="M134.374 172.299C141.318 172.418 144.585 176.792 149.487 179.651C145.811 180.468 140.922 182.843 134.374 182.919C127.825 182.994 122.528 179.651 117.596 178.463C122.937 176.792 127.07 172.173 134.374 172.299Z" stroke="#3F3526"/>
<path d="M128.339 177.609C128.339 178.876 129.053 180.069 130.242 180.964C131.43 181.858 133.052 182.419 134.751 182.419C136.454 182.419 138.201 181.855 139.513 180.952C140.833 180.043 141.635 178.849 141.635 177.609C141.635 176.215 141.331 175.151 140.406 174.37C139.449 173.56 137.739 172.974 134.722 172.798C131.73 172.623 130.186 173.217 129.37 174.066C128.547 174.923 128.339 176.164 128.339 177.609Z" stroke="#3F3526"/>
<path d="M131.198 176.956C131.198 178.661 132.815 180.122 134.648 180.122C135.553 180.122 136.496 179.758 137.211 179.164C137.925 178.569 138.367 177.783 138.367 176.956C138.367 175.993 138.19 175.136 137.674 174.495C137.168 173.866 136.264 173.356 134.612 173.239C133.004 173.125 132.212 173.626 131.783 174.273C131.318 174.974 131.198 175.959 131.198 176.956Z" stroke="#3F3526"/>
<path d="M151.121 178.834C145.811 175.158 142.135 168.214 133.966 168.214C126.606 168.214 122.937 173.116 112.286 176.792" stroke="#3F3526" stroke-linecap="round"/>
<path d="M131.514 185.37C126.204 185.37 121.303 181.285 115.553 180.06" stroke="#3F3526" stroke-linecap="round"/>
</svg>
