<svg width="340" height="341" viewBox="0 0 340 341" fill="none" xmlns="http://www.w3.org/2000/svg">
<circle cx="124.308" cy="207.633" r="19.3631" fill="#ED6B4D" fill-opacity="0.7"/>
<circle cx="166.034" cy="247.418" r="23.2345" fill="#ED6B4D" fill-opacity="0.7"/>
<circle cx="219.479" cy="179.534" r="44.6489" fill="#ED6B4D" fill-opacity="0.7"/>
<path d="M169.006 69.9782C172.467 69.9782 174.543 65.9705 179.388 65.9705C185.444 65.9705 188.904 69.9782 194.96 72.9841C199.805 75.3887 206.207 76.9918 208.802 77.9938M208.802 77.9938C198.421 85.0073 190.634 97.0306 169.006 97.0306M208.802 77.9938C197.903 83.0429 192.365 81.7153 181.983 79.9976C175.927 78.9957 174.197 83.0035 169.006 83.0035" stroke="#3F3526"/>
<path d="M169.006 69.9782C165.63 69.9782 163.605 65.9705 158.878 65.9705C152.97 65.9705 149.594 69.9782 143.686 72.9841C138.959 75.3887 132.713 76.9918 130.181 77.9938M130.181 77.9938C140.309 85.0073 147.906 97.0306 169.006 97.0306M130.181 77.9938C140.815 83.0429 146.218 81.7153 156.346 79.9976C162.254 78.9957 163.942 83.0035 169.006 83.0035" stroke="#3F3526"/>
<path fill-rule="evenodd" clip-rule="evenodd" d="M269.324 33.1932C269.448 32.9465 269.348 32.6459 269.102 32.5218C268.855 32.3977 268.554 32.4971 268.43 32.7438C267.315 34.9614 265.999 37.6715 264.503 40.7547L264.503 40.7552C259.552 50.955 252.619 65.239 244.371 79.2934C239.002 88.4418 233.083 97.4785 226.803 105.211C224.98 107.455 223.129 109.587 221.254 111.579C221.019 111.608 220.834 111.801 220.817 112.04C216.364 116.709 211.777 120.578 207.119 123.269C193.118 131.359 176.479 133.336 169.423 133.412C162.407 133.33 145.942 131.345 132.084 123.269C127.315 120.49 122.537 116.522 117.851 111.765C117.828 111.737 117.803 111.711 117.776 111.689C109.25 103.016 101.025 91.7355 93.6928 80.2481C82.3245 62.4365 73.1586 44.2176 68.4043 34.687C68.281 34.4399 67.9808 34.3395 67.7337 34.4628C67.4866 34.5861 67.3862 34.8863 67.5094 35.1334C72.2652 44.6668 81.451 62.9266 92.8498 80.7862C100.15 92.2242 108.381 103.535 116.959 112.283C116.94 130.537 114.468 152.146 108.346 169.663C102.305 186.948 95.9927 204.736 84.2419 220.961C72.501 237.173 55.3133 251.847 27.4919 262.844C27.2351 262.945 27.1092 263.236 27.2107 263.493C27.3122 263.749 27.6027 263.875 27.8595 263.774C55.8485 252.71 73.1934 237.922 85.0518 221.548C96.9002 205.187 103.254 187.265 109.29 169.993C115.348 152.658 117.849 131.396 117.955 113.286C122.436 117.737 127.005 121.467 131.58 124.133C145.309 132.134 161.514 134.232 168.9 134.403C168.935 134.41 168.97 134.414 169.006 134.414C169.141 134.414 169.28 134.413 169.423 134.412C169.577 134.414 169.727 134.414 169.872 134.414C169.887 134.414 169.902 134.414 169.916 134.412C169.938 134.41 169.96 134.407 169.981 134.402C177.427 134.233 193.772 132.136 207.619 124.135C212.126 121.531 216.544 117.864 220.821 113.476C220.954 131.548 223.657 152.721 229.694 169.993C235.757 187.343 242.141 205.35 254.093 221.77C266.056 238.205 283.578 253.029 311.888 264.074C312.146 264.174 312.435 264.047 312.536 263.79C312.636 263.532 312.509 263.243 312.252 263.142C284.109 252.162 266.746 237.453 254.902 221.182C243.048 204.897 236.706 187.026 230.638 169.663C224.532 152.194 221.852 130.656 221.817 112.44C223.769 110.376 225.692 108.165 227.579 105.842C233.902 98.0559 239.85 88.9728 245.233 79.7996C253.504 65.7069 260.464 51.3673 265.414 41.1675L265.415 41.1663L265.415 41.166C266.907 38.0924 268.216 35.3948 269.324 33.1932Z" fill="#3F3526"/>
<path d="M169.006 213.275C181.346 213.275 188.397 183.417 203.38 183.417C213.075 183.417 216.601 203.06 217.482 223.49C218.363 243.919 208.668 265.92 196.329 265.92C176.057 265.92 183.108 244.705 169.006 244.705" stroke="#3F3526"/>
<path d="M169.006 213.275C156.667 213.275 149.616 183.417 134.633 183.417C124.937 183.417 121.412 203.06 120.531 223.49C119.649 243.919 129.344 265.92 141.684 265.92C161.955 265.92 154.904 244.705 169.006 244.705" stroke="#3F3526"/>
</svg>
