<svg width="340" height="341" viewBox="0 0 340 341" fill="none" xmlns="http://www.w3.org/2000/svg">
<circle opacity="0.7" cx="233.198" cy="179.665" r="19.379" fill="#ED6B4D"/>
<circle opacity="0.7" cx="94.2722" cy="134.968" r="23.2536" fill="#ED6B4D"/>
<circle opacity="0.7" cx="153.59" cy="232.171" r="44.6857" fill="#ED6B4D"/>
<path d="M244.966 17.4857C250.588 90.2597 287.494 112.848 287.494 184.1C287.494 218.487 267.135 269.557 261.314 313.422" stroke="#363636" stroke-linecap="round"/>
<path d="M171.25 134.008C181.95 134.008 192.504 139.24 201.403 146.652M201.403 146.652C209.231 143.98 216.583 138.851 223.289 134.008C232.043 127.685 249.551 129.631 249.065 142.762C248.578 155.893 236.906 161.729 234.474 165.133C232.043 168.538 228.152 176.319 215.507 175.346C202.751 174.365 200.34 158.702 214.048 153.947C222.316 151.08 227.666 155.893 235.447 151.029C243.747 145.842 244.201 137.412 235.447 136.439C228.765 135.697 218.965 145.156 208.212 150.107M201.403 146.652C190.008 150.543 180.491 143.734 171.25 143.734M208.212 150.107C204.878 151.643 201.452 152.745 197.999 152.975C183.409 153.947 174.168 159.784 174.655 169.024C175.141 178.264 182.436 189.937 182.922 202.581C183.147 208.426 177.897 219.117 175.627 223.494L182.922 217.172C184.544 213.605 187.786 206.472 187.299 199.177C186.813 191.882 184.381 186.532 185.84 175.346C187.299 164.161 190.704 161.729 196.54 158.811C201.209 156.476 206.267 152.036 208.212 150.107Z" stroke="#363636"/>
<path d="M171.261 134.008C160.561 134.008 150.007 139.24 141.108 146.652M141.108 146.652C133.28 143.98 125.928 138.851 119.222 134.008C110.468 127.685 92.9601 129.631 93.4465 142.762C93.9328 155.893 105.605 161.729 108.037 165.133C110.468 168.538 114.359 176.319 127.004 175.346C139.76 174.365 142.171 158.702 128.463 153.947C120.195 151.08 114.845 155.893 107.064 151.029C98.7643 145.842 98.3099 137.412 107.064 136.439C113.746 135.697 123.546 145.156 134.299 150.107M141.108 146.652C152.503 150.543 162.02 143.734 171.261 143.734M134.299 150.107C137.633 151.643 141.059 152.745 144.512 152.975C159.102 153.947 168.343 159.784 167.856 169.024C167.37 178.264 160.075 189.937 159.589 202.581C159.364 208.426 164.614 219.117 166.884 223.494L159.589 217.172C157.967 213.605 154.725 206.472 155.212 199.177C155.698 191.882 158.13 186.532 156.671 175.346C155.212 164.161 151.807 161.729 145.971 158.811C141.302 156.476 136.244 152.036 134.299 150.107Z" stroke="#363636"/>
<path d="M80.7413 314.743C74.7735 272.423 54.675 218.266 54.675 184.1C54.675 111.572 95.5225 88.1739 98.5295 15.8037" stroke="#363636" stroke-linecap="round"/>
<path d="M176.114 223.008L171.25 227.385M171.25 227.385L166.873 223.494M171.25 227.385V340" stroke="#363636" stroke-linecap="round"/>
</svg>
