<svg width="341" height="340" viewBox="0 0 341 340" fill="none" xmlns="http://www.w3.org/2000/svg">
<circle cx="198.928" cy="212.5" r="24.5" fill="#ED6B4D" fill-opacity="0.7"/>
<circle cx="106.928" cy="182.5" r="42.5" fill="#ED6B4D" fill-opacity="0.7"/>
<ellipse cx="136.428" cy="88.5116" rx="21" ry="20.5116" fill="#ED6B4D" fill-opacity="0.7"/>
<path d="M242.426 106.499C247.426 90.4993 231.389 44.8423 169.426 38.4997C96.4265 31.0273 66.8457 79.9598 29.8457 74.4597" stroke="#3F3526" stroke-linecap="round" stroke-linejoin="round"/>
<path d="M242.428 106.5C238.928 116.5 231.028 123.6 217.428 130C201.186 137.643 178.394 141.115 160.215 169.59M86.9277 318C95.0944 316.5 113.502 309.426 125.928 297C135.425 287.503 140.716 277.208 143.656 266.612" stroke="#3F3526" stroke-linecap="round" stroke-linejoin="round"/>
<path d="M242.263 106.632C245.274 111.537 250.575 119.729 252.226 133.876C253.535 145.097 246.259 162.295 246.753 172.44C247.389 185.484 266.91 205.356 266.109 210.999C265.041 218.524 255.553 215.999 252.075 220.999C248.597 225.999 254.512 227.999 253.609 231.499C253.222 232.999 251.465 234.09 248.597 234.405M248.597 234.405C242.299 235.097 231.912 234.773 225.48 232.017M248.597 234.405C249.969 236.101 252.556 236.95 252.075 240.336C251.513 244.297 245.375 246.098 244.325 253.499C243.774 257.379 249.42 262.685 244.325 270.042C233.594 285.538 201.829 267.371 192.489 265.211C182.925 262.999 171.928 266 165.928 280C159.928 294 165.427 325 172.925 338.999" stroke="#3F3526" stroke-linecap="round" stroke-linejoin="round"/>
<path d="M236.093 172.145C233.901 173.65 227.962 176.771 221.739 177.214C215.515 177.657 206.59 174.702 202.905 173.169" stroke="#3F3526" stroke-linecap="round" stroke-linejoin="round"/>
<path d="M239.332 158.739C240.283 158.069 240.438 154.772 238.736 153.995C232.365 151.088 225.882 149.964 217.583 151.028C209.64 152.047 197.969 157.84 198.615 158.663C199.409 159.675 208.363 156.507 218.117 155.282C227.87 154.057 238.382 159.41 239.332 158.739Z" stroke="#3F3526" stroke-linecap="round" stroke-linejoin="round"/>
<path d="M242.428 106.5C229.928 122.5 200.428 128 173.928 128C154.269 128 101.806 117.883 84.4283 156.5C61.9283 206.5 86.4736 233.176 22.4736 253.176" stroke="#3F3526" stroke-linecap="round" stroke-linejoin="round"/>
<path d="M242.427 106.5C226.427 113 196.427 108.5 175.927 101C151.778 92.1649 118.611 71.42 77.9271 88.9996C37.4271 106.5 39.1787 154.926 0.678711 165.926" stroke="#3F3526" stroke-linecap="round" stroke-linejoin="round"/>
<path d="M135.794 184.141H112.87M112.87 184.141V163.68C112.87 160.919 115.108 158.68 117.87 158.68H155.247C158.008 158.68 160.247 160.919 160.247 163.68L160.247 244.723C160.247 247.484 158.008 249.723 155.247 249.723H117.87C115.108 249.723 112.87 247.484 112.87 244.723L112.87 228.505M112.87 184.141L112.87 206.902M135.794 206.902H112.87M112.87 206.902V228.505M135.03 228.505H112.87" stroke="#3F3526" stroke-linecap="round"/>
<path d="M149.883 152.878C149.883 150.117 147.644 147.878 144.883 147.878H128.233C125.472 147.878 123.233 150.117 123.233 152.878V158.68H149.883V152.878Z" stroke="#3F3526" stroke-linecap="round"/>
<path d="M136.558 147.878V114.702" stroke="#3F3526" stroke-linecap="round"/>
<path d="M163.208 266.412H108.428" stroke="#3F3526" stroke-linecap="round"/>
<rect width="26" height="16.6786" transform="matrix(-1 0 0 1 149.428 249.733)" stroke="#3F3526" stroke-linecap="round"/>
</svg>
