<svg width="340" height="340" viewBox="0 0 340 340" fill="none" xmlns="http://www.w3.org/2000/svg">
<circle cx="164.412" cy="223.59" r="28.6748" fill="#ED6B4D" fill-opacity="0.7"/>
<circle cx="131.129" cy="155.715" r="21.7906" fill="#ED6B4D" fill-opacity="0.7"/>
<circle cx="183.529" cy="169.882" r="15.0201" fill="#ED6B4D" fill-opacity="0.7"/>
<circle cx="267.672" cy="70.1419" r="3.08079" stroke="#3F3526"/>
<path d="M85.3262 138.476V117.994M186.371 213.121H251.003M142.221 213.121H133.573M251.003 213.121H274.408C278.827 213.121 282.408 209.54 282.408 205.121V117.994M251.003 213.121V218.321C251.003 222.739 247.421 226.321 243.003 226.321H189.102M139.945 226.321H133.573M85.3262 117.994V95.9536C85.3262 91.5353 88.9079 87.9536 93.3262 87.9536H111.352M85.3262 117.994H282.408M282.408 117.994V95.9536C282.408 91.5353 278.827 87.9536 274.408 87.9536H256.993M123.368 87.9536H245.185" stroke="#3F3526"/>
<rect x="111.314" y="81.7748" width="11.9399" height="18.6913" rx="5.96995" stroke="#3F3526"/>
<rect x="245.112" y="81.7747" width="11.9399" height="18.6913" rx="5.96995" stroke="#3F3526"/>
<path d="M123.104 159.217H215.501" stroke="#3F3526" stroke-linecap="round"/>
<path d="M133.573 182.265H215.501" stroke="#3F3526" stroke-linecap="round"/>
<path d="M148.384 143.283V196.736" stroke="#3F3526" stroke-linecap="round"/>
<path d="M171.546 143.283V196.736" stroke="#3F3526" stroke-linecap="round"/>
<path d="M194.707 143.283V196.736" stroke="#3F3526" stroke-linecap="round"/>
<rect x="55.2197" y="138.376" width="78.4976" height="18.1846" rx="4.5" stroke="#3F3526"/>
<rect x="65.4319" y="156.637" width="58.0737" height="7.84091" stroke="#3F3526"/>
<path d="M55.2197 175.035C55.2197 169.236 59.9207 164.535 65.7197 164.535H123.217C129.016 164.535 133.717 169.236 133.717 175.035V244.242C133.717 257.773 122.748 268.742 109.217 268.742H79.7197C66.1888 268.742 55.2197 257.773 55.2197 244.242V175.035Z" stroke="#3F3526"/>
<path d="M55.2197 182.608H96.8499C102.649 182.608 107.35 187.309 107.35 193.108V237.807C107.35 243.606 102.649 248.307 96.8499 248.307H55.2197V232.132V215.457V198.783V182.608Z" stroke="#3F3526" stroke-linecap="round"/>
<path d="M88.8193 268.866H163.268" stroke="#3F3526"/>
<circle cx="204.972" cy="70.1419" r="3.08079" stroke="#3F3526"/>
<circle cx="164.494" cy="223.739" r="24.5678" stroke="#3F3526"/>
<circle cx="164.493" cy="223.739" r="12.8182" stroke="#3F3526"/>
<circle cx="164.493" cy="223.739" r="7.21005" stroke="#3F3526"/>
<path d="M241.329 166.528C193.948 169.236 190.046 74.7092 193.896 69.7092C197.746 64.7093 202.554 69.7092 202.554 69.7092M241.329 166.528C288.711 163.821 280.923 76.7919 278.677 69.7092C276.431 62.6266 270.008 68.382 270.008 68.382M241.329 166.528C246.154 192.749 248.044 227.231 235.527 247.258C221.019 270.471 177.999 278.592 165.255 230.801" stroke="#3F3526"/>
</svg>
