<svg width="340" height="340" viewBox="0 0 340 340" fill="none" xmlns="http://www.w3.org/2000/svg">
<circle cx="205.834" cy="250.756" r="30.5772" fill="#ED6B4D" fill-opacity="0.7"/>
<circle cx="236.466" cy="154.335" r="22.5801" fill="#ED6B4D" fill-opacity="0.7"/>
<circle cx="150.379" cy="186.794" r="17.4055" fill="#ED6B4D" fill-opacity="0.7"/>
<path d="M206.359 106.823V88.4793C206.359 84.061 202.777 80.4793 198.359 80.4793H181.427M104.278 80.4793H84.053C79.6347 80.4793 76.053 84.061 76.053 88.4793V247.004C76.053 251.423 79.6347 255.004 84.053 255.004H179.545M206.359 223.957V200.436" stroke="#3F3526"/>
<path d="M93.4285 165.208H177.859" stroke="#3F3526" stroke-linecap="round"/>
<path d="M93.4282 188H177.859" stroke="#3F3526" stroke-linecap="round"/>
<path d="M93.4282 211H177.859" stroke="#3F3526" stroke-linecap="round"/>
<path d="M93.4285 234H177.859" stroke="#3F3526" stroke-linecap="round"/>
<path d="M103.945 67.5919C103.945 62.3452 108.198 58.0919 113.445 58.0919H171.939C177.186 58.0919 181.439 62.3452 181.439 67.5919V90.9833H103.945V67.5919Z" stroke="#3F3526"/>
<mask id="path-10-inside-1" fill="white">
<path d="M161.823 58.435C161.823 55.9227 161.328 53.435 160.367 51.1139C159.405 48.7929 157.996 46.6839 156.22 44.9075C154.443 43.131 152.334 41.7219 150.013 40.7604C147.692 39.799 145.205 39.3042 142.692 39.3042C140.18 39.3042 137.692 39.799 135.371 40.7604C133.05 41.7219 130.941 43.131 129.165 44.9075C127.388 46.6839 125.979 48.7929 125.018 51.1139C124.056 53.435 123.562 55.9227 123.562 58.435L142.692 58.435H161.823Z"/>
</mask>
<path d="M161.823 58.435C161.823 55.9227 161.328 53.435 160.367 51.1139C159.405 48.7929 157.996 46.6839 156.22 44.9075C154.443 43.131 152.334 41.7219 150.013 40.7604C147.692 39.799 145.205 39.3042 142.692 39.3042C140.18 39.3042 137.692 39.799 135.371 40.7604C133.05 41.7219 130.941 43.131 129.165 44.9075C127.388 46.6839 125.979 48.7929 125.018 51.1139C124.056 53.435 123.562 55.9227 123.562 58.435L142.692 58.435H161.823Z" stroke="#3F3526" stroke-width="2" mask="url(#path-10-inside-1)"/>
<rect x="95.4963" y="111.524" width="30.5548" height="34.176" rx="5.5" stroke="#3F3526"/>
<path d="M242.581 98.8256V94.1215" stroke="#3F3526"/>
<path d="M230.82 98.8256V94.1215" stroke="#3F3526"/>
<circle cx="235.667" cy="153.806" r="55.3881" stroke="#3F3526"/>
<rect x="213.797" y="81.4497" width="44.5241" height="12.5443" rx="6.27217" stroke="#3F3526"/>
<rect x="275.301" y="96.9801" width="25.7029" height="12.5443" rx="6.27217" transform="rotate(45 275.301 96.9801)" stroke="#3F3526"/>
<rect y="-0.707107" width="25.7029" height="12.5443" rx="6.27217" transform="matrix(0.707107 -0.707107 -0.707107 -0.707107 187.211 123.328)" stroke="#3F3526"/>
<path d="M236.059 115.155V98.7038" stroke="#3F3526" stroke-linecap="round"/>
<path d="M236.059 209.115V193.243" stroke="#3F3526" stroke-linecap="round"/>
<path d="M197.016 154.199H180.565" stroke="#3F3526" stroke-linecap="round"/>
<path d="M290.556 154.199H274.105" stroke="#3F3526" stroke-linecap="round"/>
<path d="M208.134 126.33L196.501 114.698" stroke="#3F3526" stroke-linecap="round"/>
<path d="M274.983 193.18L263.351 181.547" stroke="#3F3526" stroke-linecap="round"/>
<path d="M263.668 126.591L275.301 114.958" stroke="#3F3526" stroke-linecap="round"/>
<path d="M196.819 193.44L208.451 181.808" stroke="#3F3526" stroke-linecap="round"/>
<path d="M213.159 130.556L236.6 153.997H258.64" stroke="#3F3526" stroke-linecap="round"/>
<path d="M226.247 267.946C216.786 279.165 200.022 280.59 188.803 271.129C177.584 261.668 176.159 244.904 185.619 233.685C195.08 222.466 211.845 221.041 223.064 230.502C234.283 239.963 235.708 256.727 226.247 267.946Z" stroke="#3F3526"/>
</svg>
