<svg width="341" height="340" viewBox="0 0 341 340" fill="none" xmlns="http://www.w3.org/2000/svg">
<circle cx="228.928" cy="107.5" r="32.5" fill="#ED6B4D" fill-opacity="0.7"/>
<circle cx="128.928" cy="240.5" r="40.5" fill="#ED6B4D" fill-opacity="0.7"/>
<circle cx="106.928" cy="130.5" r="20.5" fill="#ED6B4D" fill-opacity="0.7"/>
<path d="M60.0081 189.726C58.3238 193.252 57.4277 196.949 57.4277 200.76C57.4277 223.636 89.7211 242.434 131 244.548M60.0081 189.726C58.3149 207.279 86.5092 221.891 118.556 222.844C119.924 222.885 121.275 222.911 122.607 222.923M60.0081 189.726C63.3199 182.793 69.6791 176.523 78.267 171.358" stroke="#3F3526" stroke-linecap="round" stroke-linejoin="round"/>
<path d="M72.4497 156.089C72.4497 175.629 99.5733 191.47 133.032 191.47C159.013 191.47 180.656 182.364 189.264 168.946M72.4497 156.089C79.3313 169.584 98.6164 176.775 123.03 175.426C144.396 174.246 161.441 169.071 173.76 158.573C182.83 150.843 183.063 138.452 174.5 130C182.754 134.38 188.59 139.091 191.5 145.5M72.4497 156.089C72.4497 143.417 83.8565 132.301 101 126.052" stroke="#3F3526" stroke-linecap="round" stroke-linejoin="round"/>
<path d="M167.16 87.5464C180.446 92.4204 189.229 100.855 189.229 110.444C189.229 125.53 167.489 137.759 140.672 137.759C124.266 137.759 109.761 133.182 100.971 126.174M167.16 87.5464C179.263 93.863 182.542 105.264 177.906 114.024C170.258 128.478 150.576 129.48 134.889 131.084C118.366 132.775 108.476 128.924 100.971 126.174M167.16 87.5464C166.453 87.287 165.733 87.0376 165 86.7987M100.971 126.174C95.3925 121.727 92.1157 116.301 92.1157 110.444C92.1157 101.644 99.5131 93.8154 111 88.8197" stroke="#3F3526" stroke-linecap="round" stroke-linejoin="round"/>
<path d="M167.187 79.8899C167.187 84.575 163.908 88.9104 158.402 92.1025C152.91 95.2871 145.289 97.2728 136.844 97.2728C128.399 97.2728 120.778 95.2871 115.285 92.1025C109.78 88.9104 106.501 84.575 106.501 79.8899C106.501 75.2049 109.78 70.8694 115.285 67.6774C120.778 64.4928 128.399 62.5071 136.844 62.5071C147.226 62.5071 156.348 65.5068 161.811 70.0322C165.238 72.8712 167.187 76.2737 167.187 79.8899Z" stroke="#3F3526" stroke-linecap="round" stroke-linejoin="round"/>
<path d="M189 198.953V151C189 146.582 192.582 143 197 143H257C261.418 143 265 146.582 265 151V235.482C265 239.9 261.418 243.482 257 243.482H231.597" stroke="#3F3526" stroke-linecap="round" stroke-linejoin="round"/>
<path d="M222.039 258H267.97C271.979 258 275.229 254.75 275.229 250.741V250.741C275.229 246.732 271.979 243.482 267.97 243.482H231.648" stroke="#3F3526" stroke-linecap="round" stroke-linejoin="round"/>
<path d="M241.729 116.574C241.729 122.729 238.337 127.463 234.887 130.685C233.166 132.293 231.442 133.512 230.149 134.328C229.503 134.736 228.965 135.043 228.591 135.247C228.444 135.328 228.322 135.392 228.229 135.44C228.135 135.392 228.013 135.328 227.866 135.247C227.492 135.043 226.954 134.736 226.308 134.328C225.015 133.512 223.291 132.293 221.57 130.685C218.12 127.463 214.729 122.729 214.729 116.574C214.729 110.382 218.152 103.846 221.64 98.8081C223.376 96.2997 225.114 94.1839 226.417 92.6954C227.069 91.9513 227.611 91.3647 227.99 90.9648C228.079 90.8711 228.158 90.7877 228.229 90.7149C228.299 90.7877 228.378 90.8711 228.467 90.9648C228.846 91.3647 229.388 91.9513 230.04 92.6954C231.343 94.1839 233.081 96.2997 234.817 98.8081C238.305 103.846 241.729 110.382 241.729 116.574Z" stroke="#3F3526" stroke-linecap="round" stroke-linejoin="round"/>
<path d="M228.229 123V143" stroke="#3F3526" stroke-linecap="round" stroke-linejoin="round"/>
<path d="M168.389 209.073C173.918 195.884 181.076 186 181.076 186C181.076 186 187.824 195.317 193.277 207.931" stroke="#3F3526" stroke-linecap="round" stroke-linejoin="round"/>
<path d="M180.212 223.601C191.646 205.364 212.846 192.249 212.846 192.249C212.846 192.249 215.784 204.723 215.675 219.518" stroke="#3F3526" stroke-linecap="round" stroke-linejoin="round"/>
<path d="M144.859 218.734C144.874 204.35 147.691 192.394 147.691 192.394C147.691 192.394 175.258 209.448 184.476 231.705C185.904 235.152 186.808 238.521 187.316 241.755" stroke="#3F3526" stroke-linecap="round" stroke-linejoin="round"/>
<path d="M181.028 272.971C181.028 272.971 203.439 277.348 220.473 260.314C237.507 243.28 242.714 211.285 242.714 211.285C242.714 211.285 210.719 216.492 193.685 233.526C185.414 241.797 182.191 251.336 181.064 258.961" stroke="#3F3526" stroke-linecap="round" stroke-linejoin="round"/>
<path d="M141.636 260.33C158.67 277.364 181.081 272.987 181.081 272.987C181.081 272.987 185.458 250.576 168.424 233.542C151.39 216.508 119.395 211.301 119.395 211.301C119.395 211.301 124.602 243.296 141.636 260.33Z" stroke="#3F3526" stroke-linecap="round" stroke-linejoin="round"/>
<path d="M173.551 273.49H243.551" stroke="#3F3526" stroke-linecap="round" stroke-linejoin="round"/>
</svg>
