<svg width="340" height="340" viewBox="0 0 340 340" fill="none" xmlns="http://www.w3.org/2000/svg">
<circle cx="104.928" cy="240.5" r="46.5" fill="#ED6B4D" fill-opacity="0.7"/>
<circle cx="259.5" cy="127.5" r="15.5" fill="#ED6B4D" fill-opacity="0.7"/>
<circle cx="216.428" cy="207" r="24" fill="#ED6B4D" fill-opacity="0.7"/>
<path d="M264.828 135.024V135.024C268.103 135.024 270.758 137.679 270.758 140.955V240.183C270.758 244.602 267.176 248.183 262.758 248.183H199.831C193.501 248.183 187.262 249.686 181.626 252.566L177.623 254.612C173.808 256.562 169.278 256.507 165.511 254.465L162.842 253.018C156.989 249.845 150.436 248.183 143.778 248.183H142M81.5 135.024H80.2988C75.8806 135.024 72.2988 138.606 72.2988 143.024V226.778" stroke="#3F3526" stroke-linecap="round" stroke-linejoin="round"/>
<path d="M127.687 117.952C112.751 117.952 98.1907 117.952 89.5464 117.952C85.1281 117.952 81.5557 121.534 81.5557 125.952V226.5M171.529 158V243.257C171.529 243.257 167.017 238.029 154.433 238.029C150.506 238.029 146.314 238.029 142 238.029" stroke="#3F3526" stroke-linecap="round" stroke-linejoin="round"/>
<path d="M239 117.952C244.43 117.952 249.237 117.952 253 117.952C255 118 256.5 119 257 120M171.528 158V243.257C171.528 243.257 176.039 238.029 188.624 238.029C210.12 238.029 239.554 238.029 253.521 238.029C257.939 238.029 261.501 234.447 261.501 230.029V157" stroke="#3F3526" stroke-linecap="round" stroke-linejoin="round"/>
<path d="M97.5605 148.107L136 148.107" stroke="#3F3526" stroke-linecap="round" stroke-linejoin="round"/>
<path d="M97.5605 161.978H154.767" stroke="#3F3526" stroke-linecap="round" stroke-linejoin="round"/>
<path d="M97.5605 175.849H154.767" stroke="#3F3526" stroke-linecap="round" stroke-linejoin="round"/>
<path d="M97.5605 189.719H154.767" stroke="#3F3526" stroke-linecap="round" stroke-linejoin="round"/>
<path d="M245.15 148.107H230.5" stroke="#3F3526" stroke-linecap="round" stroke-linejoin="round"/>
<path d="M245.15 161.978H187.944" stroke="#3F3526" stroke-linecap="round" stroke-linejoin="round"/>
<path d="M245.15 175.849H187.944" stroke="#3F3526" stroke-linecap="round" stroke-linejoin="round"/>
<path d="M245.15 189.719H187.944" stroke="#3F3526" stroke-linecap="round" stroke-linejoin="round"/>
<path d="M90.6277 226.7C90.9039 226.7 91.1277 226.476 91.1277 226.2V209C91.1277 206.515 93.1425 204.5 95.6277 204.5H115.228C117.713 204.5 119.728 206.515 119.728 209V226.2C119.728 226.476 119.952 226.7 120.228 226.7H137.428C139.913 226.7 141.928 228.715 141.928 231.2V250.8C141.928 253.285 139.913 255.3 137.428 255.3H120.228C119.952 255.3 119.728 255.524 119.728 255.8V273C119.728 275.485 117.713 277.5 115.228 277.5H95.6277C93.1425 277.5 91.1277 275.485 91.1277 273V255.8C91.1277 255.524 90.9039 255.3 90.6277 255.3H73.4277C70.9425 255.3 68.9277 253.285 68.9277 250.8V231.2C68.9277 228.715 70.9425 226.7 73.4277 226.7H90.6277Z" stroke="#3F3526" stroke-linecap="round" stroke-linejoin="round"/>
<path d="M238.749 106V139.338C238.749 141.932 237.496 144.355 235.239 145.634C227.873 149.806 209.307 158.565 183.265 158.565C157.224 158.565 138.658 149.806 131.292 145.634C129.035 144.355 127.782 141.932 127.782 139.338V106.678" stroke="#3F3526" stroke-linecap="round" stroke-linejoin="round"/>
<path d="M97.0018 93.4325C93.3799 91.869 93.3799 86.7332 97.0018 85.1696L176.482 50.8585C182.173 48.4016 188.626 48.4016 194.317 50.8585L270.596 83.7878C274.218 85.3514 274.218 90.4871 270.596 92.0507L191.116 126.362C185.425 128.819 178.972 128.819 173.281 126.362L97.0018 93.4325Z" stroke="#3F3526" stroke-linecap="round" stroke-linejoin="round"/>
<path d="M186.411 82.7201L252.936 94.8596C256.738 95.5533 259.5 98.8653 259.5 102.73V119.531" stroke="#3F3526" stroke-linecap="round" stroke-linejoin="round"/>
<path d="M254.727 133L250.47 150.84C249.72 153.982 252.103 157 255.334 157H263.666C266.897 157 269.28 153.982 268.53 150.84L264.273 133" stroke="#3F3526" stroke-linecap="round" stroke-linejoin="round"/>
<circle cx="259.5" cy="127.5" r="7.5" stroke="#3F3526" stroke-linecap="round" stroke-linejoin="round"/>
</svg>
