<svg width="341" height="340" viewBox="0 0 341 340" fill="none" xmlns="http://www.w3.org/2000/svg">
<circle cx="126.5" cy="121.5" r="19.5" fill="#ED6B4D" fill-opacity="0.7"/>
<circle cx="203" cy="162" r="38" fill="#ED6B4D" fill-opacity="0.7"/>
<circle cx="112.5" cy="233.5" r="29.5" fill="#ED6B4D" fill-opacity="0.7"/>
<path d="M246.121 217.5V111.396C246.121 95.3802 233.138 82.3965 217.121 82.3965H187.338C171.321 82.3965 158.338 95.3802 158.338 111.397V170.5" stroke="#3F3526" stroke-linecap="round" stroke-linejoin="round"/>
<rect x="188.644" y="69.856" width="26.1261" height="12.5405" stroke="#3F3526" stroke-linecap="round" stroke-linejoin="round"/>
<rect x="197.004" y="50.0001" width="9.40541" height="19.8559" stroke="#3F3526" stroke-linecap="round" stroke-linejoin="round"/>
<path d="M219.995 50.0001H185.989C184.569 50.0001 183.175 50.378 181.949 51.0949L167.743 59.4055" stroke="#3F3526" stroke-linecap="round" stroke-linejoin="round"/>
<rect x="188.644" y="113.748" width="57.4775" height="74.1982" stroke="#3F3526" stroke-linecap="round" stroke-linejoin="round"/>
<path d="M164.43 217.5V178.367C164.43 173.949 160.848 170.367 156.43 170.367H68.1035C63.6852 170.367 60.1035 173.949 60.1035 178.367V218.613C60.1035 223.031 63.6852 226.613 68.1035 226.613H108.5" stroke="#3F3526" stroke-linecap="round" stroke-linejoin="round"/>
<path d="M70.0825 158.574V170.367H153.544V164.924M70.0825 158.574V150.409H74.6185M70.0825 158.574H113.174M153.544 164.924V150.409H149.461M153.544 164.924H130.864M74.6185 150.409C75.9792 147.083 81.3317 140.158 91.855 139.069C105.009 137.708 124.967 140.43 127.235 133.172C129.05 127.366 125.875 122.286 121.792 120.018C129.503 120.472 141.998 124.506 146.74 132.265C151.729 140.43 149.613 147.99 149.461 150.409M74.6185 150.409H149.461" stroke="#3F3526" stroke-linecap="round" stroke-linejoin="round"/>
<rect x="60" y="182" width="66" height="28" stroke="#3F3526" stroke-linecap="round" stroke-linejoin="round"/>
<rect x="108.676" y="217.707" width="151.577" height="63.7928" rx="7.5" stroke="#3F3526" stroke-linecap="round" stroke-linejoin="round"/>
<circle cx="127.441" cy="235.461" r="8.34843" stroke="#3F3526" stroke-linecap="round" stroke-linejoin="round"/>
<circle cx="155.953" cy="235.461" r="8.34843" stroke="#3F3526" stroke-linecap="round" stroke-linejoin="round"/>
<circle cx="184.464" cy="235.461" r="8.34843" stroke="#3F3526" stroke-linecap="round" stroke-linejoin="round"/>
<circle cx="212.976" cy="235.461" r="8.34843" stroke="#3F3526" stroke-linecap="round" stroke-linejoin="round"/>
<circle cx="241.487" cy="235.461" r="8.34843" stroke="#3F3526" stroke-linecap="round" stroke-linejoin="round"/>
<circle cx="127.441" cy="262.742" r="8.34843" stroke="#3F3526" stroke-linecap="round" stroke-linejoin="round"/>
<circle cx="155.953" cy="262.742" r="8.34843" stroke="#3F3526" stroke-linecap="round" stroke-linejoin="round"/>
<circle cx="184.464" cy="262.742" r="8.34843" stroke="#3F3526" stroke-linecap="round" stroke-linejoin="round"/>
<circle cx="212.976" cy="262.742" r="8.34843" stroke="#3F3526" stroke-linecap="round" stroke-linejoin="round"/>
<circle cx="241.487" cy="262.742" r="8.34843" stroke="#3F3526" stroke-linecap="round" stroke-linejoin="round"/>
</svg>
